<svg xmlns="http://www.w3.org/2000/svg" version="1.1" xmlns:xlink="http://www.w3.org/1999/xlink" xmlns:svgjs="http://svgjs.dev/svgjs" width="1500" height="1500" viewBox="0 0 1500 1500"><g transform="matrix(1,0,0,1,0,0.0004940300816542731)"><svg viewBox="0 0 280 280" data-background-color="#d2d6dc" preserveAspectRatio="xMidYMid meet" height="1500" width="1500" xmlns="http://www.w3.org/2000/svg" xmlns:xlink="http://www.w3.org/1999/xlink"><g id="tight-bounds" transform="matrix(1,0,0,1,0,0.00009221894853794765)"><svg viewBox="0 0 280 280" height="280" width="280"><g><svg viewBox="0 0 280 280" height="280" width="280"><g><svg viewBox="0 0 280 280" height="280" width="280"><g id="textblocktransform"><svg viewBox="0 0 280 280" height="280" width="280" id="textblock"><g><svg viewBox="0 0 280 280" height="280" width="280"><g transform="matrix(1,0,0,1,57.50420886156945,57.50420886156945)"><svg viewBox="0 0 164.9915822768611 164.9915822768611" height="164.9915822768611" width="164.9915822768611"><g id="icon-0"><circle r="82" cx="82.49579113843055" cy="82.49579113843055" fill="#6b7280" data-fill-palette-color="accent"></circle><svg xmlns="http://www.w3.org/2000/svg" xmlns:xlink="http://www.w3.org/1999/xlink" version="1.1" x="24.748737341529164" y="24.74873734152917" viewBox="1.3852068383157927 6.598 88.38731869956395 78.343" enable-background="new 0 0 91 91" xml:space="preserve" height="115.49410759380275" width="115.49410759380275" class="icon-xg-0" data-fill-palette-color="quaternary" id="xg-0"><g fill="#d2d6dc" data-fill-palette-color="quaternary"><path d="M86.475 39.204c-0.121-0.09-0.256-0.157-0.4-0.199-0.301-0.087-30.109-8.7-31.986-9.301-0.248-0.081-0.514-0.079-0.762-0.001L5.889 44.711c-0.512 0.161-0.863 0.631-0.877 1.169C5 46.418 5.332 46.9 5.836 47.086c2.609 0.953 32.969 12.655 33.834 13.04 4.285 1.998 6.234 3.533 4.959 6.459-0.002 0.002-0.002 0.002-0.002 0.006-0.002 0-0.002 0.002-0.004 0.004-0.229 0.246-1.492 0.627-4.551-0.6C34.826 63.899 7.385 52.749 7.107 52.638c-0.082-0.033-0.17-0.059-0.256-0.074-1.324-0.225-3.861-0.008-4.975 2.297-0.674 1.393-0.652 2.85 0.068 4.221 0.238 0.451 0.639 1.021 1.447 1.637-0.598 0.367-1.141 0.893-1.514 1.666-0.678 1.391-0.654 2.848 0.066 4.221 0.453 0.861 1.457 2.148 4.844 3.363L40 84.136c0.104 0.047 1.764 0.805 4.023 0.805 1.162 0 2.48-0.199 3.828-0.799l37.896-16.051c0.639-0.271 0.938-1.008 0.666-1.645-0.27-0.639-1.006-0.938-1.645-0.668L46.854 81.839c-2.92 1.299-5.768 0.033-5.83 0.006L7.705 67.632c-1.34-0.482-3.041-1.254-3.541-2.203-0.346-0.656-0.355-1.275-0.027-1.951 0.564-1.166 2.197-0.934 2.291-0.918 0.189 0.033 0.373 0.014 0.547-0.037L40 76.61c0.104 0.049 1.764 0.805 4.023 0.805 1.162 0 2.48-0.199 3.828-0.799l37.896-16.049c0.639-0.271 0.938-1.008 0.666-1.646-0.27-0.637-1.006-0.938-1.645-0.666L46.854 74.313c-2.92 1.299-5.768 0.033-5.83 0.006L7.705 60.106c-1.34-0.48-3.043-1.254-3.541-2.199-0.346-0.656-0.354-1.277-0.027-1.953 0.49-1.014 1.789-0.971 2.174-0.932 2.203 0.895 27.779 11.285 32.828 13.305 2.719 1.086 4.838 1.32 6.297 0.684 0.557-0.242 0.906-0.557 1.133-0.836 3.027-1.283 7.502-3.082 12.246-4.988C74.4 56.921 85.568 52.353 87.293 50.604c1.787-1.812 2.617-3.757 2.461-5.782C89.498 41.488 86.598 39.295 86.475 39.204zM85.506 48.842c-1.49 1.511-17.221 7.833-27.629 12.015-3.805 1.531-7.449 2.994-10.314 4.182 0.109-3.949-4.283-5.998-6.832-7.189-0.746-0.348-22.113-8.571-30.645-11.833l43.625-13.802c3.789 1.144 28.48 8.283 31.42 9.132 0.49 0.422 1.98 1.848 2.121 3.669C87.348 46.283 86.762 47.57 85.506 48.842z" fill="#d2d6dc" data-fill-palette-color="quaternary"></path><path d="M65.621 41.278c-1.248 0.557-2.66 1.355-4.154 2.2-2.896 1.638-6.125 3.463-8.709 3.854 0.094-0.52 0.246-1.105 0.395-1.678 0.566-2.177 1.271-4.888-0.564-6.626-0.588-0.559-1.66-1.184-3.408-0.977-4.287 0.503-10.281 5.748-11.395 7.451-0.379 0.58-0.217 1.359 0.363 1.738s1.359 0.217 1.738-0.365c0.771-1.178 6.197-5.934 9.586-6.331 0.951-0.114 1.281 0.203 1.389 0.305 0.76 0.72 0.303 2.476-0.139 4.173-0.354 1.361-0.688 2.646-0.533 3.796l0.139 1.025 1.031 0.061c0.143 0.01 0.285 0.014 0.43 0.014 3.385 0 7.375-2.256 10.912-4.254 1.443-0.815 2.805-1.585 3.943-2.094 0.633-0.283 0.916-1.024 0.633-1.658C66.996 41.281 66.254 40.994 65.621 41.278z" fill="#d2d6dc" data-fill-palette-color="quaternary"></path><polygon points="39.924,25.497 42.434,25.497 42.434,19.752 48.178,19.752 48.178,17.242 42.434,17.242 42.434,11.498    39.924,11.498 39.924,17.242 34.18,17.242 34.18,19.752 39.924,19.752  " fill="#d2d6dc" data-fill-palette-color="quaternary"></polygon><polygon points="23.805,31.425 26.316,31.425 26.316,27.793 29.949,27.793 29.949,25.283 26.316,25.283 26.316,21.649    23.805,21.649 23.805,25.283 20.172,25.283 20.172,27.793 23.805,27.793  " fill="#d2d6dc" data-fill-palette-color="quaternary"></polygon><polygon points="28.695,14.856 31.205,14.856 31.205,11.983 34.08,11.983 34.08,9.473 31.205,9.473 31.205,6.598 28.695,6.598    28.695,9.473 25.82,9.473 25.82,11.983 28.695,11.983  " fill="#d2d6dc" data-fill-palette-color="quaternary"></polygon></g></svg></g></svg></g><g id="text-0"><path d="M9.684 95.933l22.381 8.054 1.179-3.277c0.581-1.613 1.055-3.275 1.422-4.986 0.361-1.713 0.576-3.433 0.645-5.16v0c-0.005 0.013 0.235 0.028 0.717 0.045 0.481 0.024 0.969 0.125 1.465 0.304v0c0.709 0.255 1.121 0.687 1.235 1.295 0.114 0.608-0.014 1.516-0.384 2.723-0.364 1.209-0.917 2.843-1.658 4.901v0c-0.393 1.092-0.795 2.17-1.206 3.235-0.411 1.064-0.78 2.009-1.105 2.836-0.334 0.83-0.593 1.442-0.778 1.836v0c-0.262 0.53-0.54 0.851-0.837 0.965-0.302 0.111-0.711 0.074-1.225-0.112v0l-22.061-7.938-1.253 3.483-1.432-0.515c-0.061-0.44 0.003-1.201 0.194-2.28 0.182-1.076 0.485-2.204 0.909-3.385v0c0.334-0.929 0.597-1.54 0.787-1.833 0.199-0.297 0.534-0.361 1.005-0.191z" fill="#6b7280" data-fill-palette-color="primary"></path><path d="M23.521 66.616v0c-0.611-0.394-0.983-0.95-1.115-1.669-0.132-0.72 0.003-1.391 0.404-2.014v0c0.408-0.634 0.965-1.037 1.67-1.209 0.706-0.172 1.365-0.062 1.977 0.332v0c0.595 0.383 0.957 0.929 1.086 1.639 0.136 0.714-0.001 1.388-0.408 2.022v0c-0.401 0.623-0.956 1.023-1.666 1.201-0.704 0.182-1.353 0.081-1.948-0.302zM32.371 66.457l14.355 9.238 1.809-2.81 1.211 0.78c-0.036 0.5-0.256 1.212-0.659 2.134-0.413 0.924-0.868 1.774-1.366 2.548v0c-0.422 0.656-0.873 1.148-1.353 1.473-0.48 0.326-1.048 0.278-1.704-0.144v0l-13.691-8.811-1.825 2.836-1.211-0.78c0.051-0.388 0.224-0.915 0.518-1.583 0.285-0.665 0.628-1.365 1.029-2.098 0.395-0.737 0.773-1.386 1.135-1.947v0c0.282-0.438 0.536-0.753 0.764-0.948 0.226-0.203 0.555-0.166 0.988 0.112z" fill="#6b7280" data-fill-palette-color="primary"></path><path d="M58.215 62.492l-11.125-11.832-2.457 2.31-0.987-1.049c0.143-0.364 0.439-0.834 0.886-1.41 0.438-0.576 0.94-1.172 1.506-1.787 0.562-0.62 1.086-1.158 1.572-1.615v0c0.379-0.356 0.703-0.601 0.971-0.735 0.269-0.143 0.579-0.027 0.931 0.347v0l0.644 0.685c0.121-0.242 0.357-0.775 0.708-1.599 0.346-0.829 0.819-1.759 1.416-2.788 0.603-1.034 1.349-1.969 2.239-2.805v0c1.079-1.015 2.076-1.586 2.99-1.714 0.92-0.132 1.79 0.043 2.61 0.527 0.82 0.483 1.635 1.155 2.445 2.015v0l8.376 8.908 2.435-2.289 0.987 1.049c-0.151 0.472-0.537 1.109-1.156 1.911-0.619 0.793-1.266 1.507-1.942 2.142v0c-0.569 0.535-1.12 0.898-1.654 1.089-0.539 0.196-1.076 0.009-1.611-0.559v0l-8.404-8.938c-0.887-0.943-1.65-1.502-2.292-1.677-0.646-0.18-1.37 0.107-2.172 0.86v0c-0.379 0.356-0.78 0.811-1.202 1.365-0.427 0.548-0.834 1.1-1.219 1.655-0.38 0.55-0.699 1.024-0.957 1.421-0.248 0.398-0.385 0.628-0.411 0.688v0l7.191 7.648c1.079 1.147 1.968 1.991 2.669 2.531 0.696 0.536 1.194 0.91 1.494 1.122v0c-0.115 0.374-0.333 0.785-0.654 1.233-0.316 0.453-0.622 0.819-0.918 1.097v0c-0.476 0.448-0.959 0.719-1.448 0.812-0.489 0.103-0.976-0.103-1.461-0.618z" fill="#6b7280" data-fill-palette-color="primary"></path><path d="M79.449 34.505v0c-0.94-1.805-1.39-3.601-1.35-5.389 0.045-1.791 0.579-3.453 1.601-4.985 1.025-1.541 2.544-2.836 4.556-3.883v0c1.509-0.786 2.968-1.147 4.377-1.083 1.412 0.055 2.672 0.437 3.779 1.146 1.101 0.713 1.956 1.655 2.566 2.827v0c0.277 0.533 0.486 1.101 0.627 1.704 0.141 0.603 0.115 1.181-0.079 1.734-0.197 0.546-0.677 1.018-1.44 1.415v0l-10.181 5.3c1.291 1.93 2.91 3.077 4.859 3.439 1.948 0.362 3.923 0.022 5.922-1.019v0c1.396-0.727 2.723-1.726 3.979-2.997v0l1.16 0.841c-0.597 1.108-1.41 2.11-2.439 3.007-1.036 0.9-2.121 1.646-3.258 2.237v0c-1.249 0.65-2.56 1.085-3.935 1.304-1.372 0.21-2.726 0.167-4.062-0.13-1.33-0.301-2.572-0.895-3.726-1.783-1.154-0.888-2.14-2.116-2.956-3.685zM82.779 31.215l8.823-4.593c-0.052-0.259-0.126-0.51-0.223-0.753-0.093-0.237-0.205-0.48-0.334-0.728v0c-0.391-0.751-0.939-1.406-1.643-1.965-0.695-0.556-1.484-0.908-2.367-1.058-0.877-0.153-1.777 0.011-2.7 0.491v0c-1.16 0.604-1.928 1.368-2.303 2.294-0.376 0.925-0.471 1.934-0.287 3.026 0.182 1.086 0.526 2.182 1.034 3.286z" fill="#6b7280" data-fill-palette-color="primary"></path><path d="M114.245 29.102l-3.062-15.95-3.311 0.636-0.272-1.415c0.316-0.23 0.817-0.469 1.503-0.717 0.678-0.253 1.421-0.487 2.229-0.703 0.806-0.223 1.537-0.397 2.192-0.522v0c0.511-0.098 0.916-0.132 1.214-0.101 0.303 0.023 0.503 0.287 0.6 0.792v0l0.177 0.923c0.231-0.14 0.716-0.464 1.454-0.972 0.737-0.515 1.633-1.047 2.69-1.596 1.063-0.55 2.194-0.941 3.392-1.171v0c1.454-0.279 2.602-0.228 3.443 0.154 0.847 0.381 1.488 0.995 1.923 1.842 0.434 0.847 0.763 1.851 0.985 3.011v0l2.306 12.009 3.282-0.631 0.271 1.416c-0.381 0.318-1.047 0.649-1.999 0.995-0.947 0.338-1.876 0.595-2.787 0.769v0c-0.767 0.147-1.427 0.158-1.98 0.034-0.56-0.123-0.914-0.568-1.062-1.335v0l-2.313-12.048c-0.244-1.271-0.59-2.152-1.037-2.644-0.449-0.498-1.214-0.643-2.295-0.436v0c-0.511 0.098-1.093 0.268-1.746 0.509-0.655 0.234-1.293 0.483-1.916 0.745-0.616 0.261-1.139 0.49-1.569 0.688-0.423 0.203-0.661 0.324-0.715 0.362v0l1.979 10.308c0.297 1.546 0.596 2.735 0.898 3.567 0.301 0.825 0.522 1.408 0.662 1.748v0c-0.298 0.254-0.702 0.485-1.212 0.691-0.509 0.213-0.964 0.358-1.364 0.435v0c-0.642 0.123-1.195 0.093-1.657-0.089-0.468-0.175-0.769-0.61-0.903-1.304z" fill="#6b7280" data-fill-palette-color="primary"></path><path d="M168.311 4.559l4.298 22.183 0.247 0.038c1.253-2.468 2.287-4.541 3.102-6.219 0.81-1.685 1.455-3.068 1.937-4.149 0.482-1.081 0.845-1.94 1.09-2.577 0.244-0.631 0.411-1.125 0.499-1.483 0.088-0.358 0.15-0.655 0.187-0.893v0c0.172-1.128 0.208-2.168 0.11-3.121-0.091-0.952-0.182-1.728-0.273-2.329v0l3.275-0.838c0.192-0.065 0.359-0.097 0.5-0.096 0.143-0.005 0.283 0.003 0.422 0.024v0c0.468 0.071 0.798 0.344 0.989 0.819 0.184 0.473 0.22 1.079 0.108 1.818v0c-0.157 1.035-0.583 2.415-1.277 4.137-0.7 1.716-1.597 3.644-2.692 5.786-1.094 2.135-2.331 4.366-3.71 6.693-1.374 2.335-2.83 4.634-4.369 6.896v0l-2.295-0.349c-0.594-0.09-1.046-0.267-1.357-0.53-0.312-0.257-0.526-0.711-0.643-1.363v0l-2.971-15.139c-0.376 0.962-0.881 2.086-1.515 3.373-0.64 1.279-1.349 2.615-2.128 4.008-0.778 1.386-1.584 2.738-2.418 4.056-0.828 1.318-1.619 2.503-2.373 3.556v0l-2.414-0.367c-0.607-0.092-1.059-0.269-1.357-0.53-0.299-0.255-0.52-0.71-0.662-1.366v0l-4.798-23.362-3.569 0.975-0.414-1.47c0.475-0.326 1.115-0.718 1.92-1.175 0.813-0.463 1.639-0.857 2.477-1.182 0.839-0.325 1.548-0.443 2.129-0.355v0c0.396 0.06 0.769 0.222 1.121 0.485 0.359 0.257 0.584 0.639 0.676 1.145v0l4.667 22.684 0.227 0.035c0.82-1.313 1.603-2.708 2.348-4.188 0.745-1.479 1.432-2.94 2.063-4.383 0.63-1.436 1.195-2.777 1.695-4.023 0.493-1.248 0.899-2.293 1.216-3.135v0l-0.073-0.517c-0.277-1.594-0.551-2.786-0.822-3.577-0.279-0.785-0.487-1.322-0.626-1.613v0c0.491-0.303 1.032-0.484 1.621-0.543 0.589-0.059 1.102-0.055 1.537 0.011v0c0.666 0.101 1.181 0.288 1.545 0.559 0.356 0.277 0.606 0.807 0.75 1.591z" fill="#6b7280" data-fill-palette-color="primary"></path><path d="M202.602 41.154l0.089-0.168c0.006-0.012-0.204 0.001-0.632 0.039-0.43 0.029-0.992 0.034-1.684 0.015-0.692-0.019-1.429-0.103-2.21-0.253-0.772-0.152-1.509-0.414-2.211-0.785v0c-0.985-0.521-1.802-1.18-2.452-1.977-0.65-0.797-1.029-1.707-1.136-2.73-0.108-1.023 0.146-2.115 0.76-3.277v0c0.69-1.303 1.615-2.146 2.776-2.528 1.17-0.385 2.505-0.399 4.007-0.041 1.511 0.354 3.121 0.984 4.831 1.888v0l2.388 1.264 0.674-1.274c0.468-0.884 0.846-1.734 1.133-2.547 0.29-0.82 0.367-1.557 0.23-2.211-0.14-0.663-0.611-1.206-1.412-1.63v0c-0.761-0.403-1.619-0.634-2.576-0.696-0.96-0.055-1.921-0.021-2.885 0.104-0.967 0.13-1.852 0.269-2.655 0.418v0l-0.41-2.606c-0.065-0.291-0.04-0.546 0.076-0.764v0c0.197-0.371 0.609-0.587 1.237-0.647 0.628-0.06 1.364-0.01 2.208 0.149 0.838 0.157 1.696 0.388 2.575 0.695 0.87 0.31 1.65 0.647 2.34 1.012v0c1.392 0.736 2.55 1.636 3.474 2.699 0.919 1.06 1.464 2.269 1.635 3.628 0.172 1.359-0.173 2.852-1.034 4.479v0l-5.004 9.455 2.954 1.563-0.674 1.274c-0.496 0.009-1.223-0.149-2.182-0.476-0.95-0.329-1.838-0.712-2.664-1.149v0c-0.554-0.293-1.041-0.672-1.46-1.135-0.413-0.46-0.449-1.056-0.106-1.788zM198.478 38.122v0c0.395 0.209 0.873 0.398 1.432 0.566 0.56 0.168 1.116 0.308 1.669 0.419 0.552 0.111 1.009 0.198 1.368 0.26 0.369 0.059 0.553 0.089 0.553 0.088v0l2.523-4.767-2.848-1.507c-0.566-0.3-1.238-0.557-2.014-0.772-0.777-0.215-1.534-0.238-2.272-0.07-0.732 0.171-1.326 0.687-1.782 1.548v0c-0.424 0.802-0.528 1.589-0.31 2.361 0.212 0.769 0.772 1.394 1.681 1.874z" fill="#6b7280" data-fill-palette-color="primary"></path><path d="M240.71 35.518l-17.454 20.017 2.519 2.196-0.947 1.086c-0.485-0.104-1.157-0.424-2.016-0.961-0.85-0.538-1.622-1.109-2.316-1.714v0c-0.593-0.517-1.012-1.032-1.254-1.545-0.248-0.517-0.116-1.07 0.397-1.659v0l16.921-19.406-2.564-2.236 0.96-1.101c0.381 0.111 0.883 0.363 1.505 0.755 0.622 0.383 1.264 0.824 1.928 1.322 0.667 0.493 1.25 0.957 1.747 1.391v0c0.397 0.346 0.675 0.646 0.835 0.901 0.164 0.249 0.077 0.567-0.261 0.954z" fill="#6b7280" data-fill-palette-color="primary"></path><path d="M240.958 77.117l0.153-0.112c0.011-0.008-0.184-0.088-0.585-0.242-0.4-0.162-0.906-0.404-1.52-0.723-0.614-0.32-1.239-0.718-1.877-1.195-0.628-0.475-1.176-1.033-1.644-1.674v0c-0.657-0.9-1.104-1.85-1.339-2.85-0.236-1.001-0.178-1.985 0.173-2.952 0.351-0.967 1.057-1.838 2.118-2.614v0c1.19-0.87 2.391-1.222 3.602-1.058 1.22 0.166 2.427 0.738 3.621 1.717 1.203 0.98 2.376 2.251 3.517 3.813v0l1.594 2.181 1.163-0.85c0.808-0.59 1.519-1.189 2.134-1.795 0.62-0.61 1.012-1.239 1.175-1.886 0.164-0.657-0.021-1.352-0.557-2.085v0c-0.508-0.695-1.178-1.279-2.011-1.752-0.839-0.469-1.719-0.859-2.639-1.17-0.926-0.306-1.783-0.569-2.571-0.787v0l0.773-2.522c0.069-0.29 0.203-0.508 0.402-0.654v0c0.339-0.248 0.805-0.261 1.396-0.04 0.591 0.221 1.231 0.588 1.919 1.101 0.685 0.508 1.355 1.092 2.012 1.752 0.647 0.659 1.201 1.304 1.661 1.934v0c0.929 1.271 1.576 2.587 1.942 3.947 0.362 1.355 0.323 2.681-0.118 3.978-0.441 1.297-1.404 2.488-2.891 3.574v0l-8.637 6.311 1.972 2.699-1.164 0.85c-0.45-0.208-1.034-0.669-1.754-1.383-0.71-0.712-1.341-1.445-1.891-2.199v0c-0.37-0.506-0.642-1.059-0.816-1.66-0.17-0.595 0.059-1.146 0.687-1.654zM238.577 72.586v0c0.264 0.361 0.611 0.74 1.04 1.135 0.43 0.396 0.869 0.765 1.317 1.108 0.448 0.342 0.82 0.619 1.117 0.832 0.306 0.215 0.458 0.322 0.458 0.322v0l4.355-3.182-1.901-2.601c-0.378-0.517-0.869-1.042-1.473-1.576-0.604-0.533-1.275-0.886-2.012-1.058-0.733-0.167-1.493 0.037-2.28 0.612v0c-0.733 0.535-1.17 1.198-1.312 1.987-0.146 0.784 0.084 1.591 0.691 2.421z" fill="#6b7280" data-fill-palette-color="primary"></path><path d="M251.241 92.97l2.549 0.624c-0.131 0.549-0.295 1.248-0.493 2.097-0.197 0.849-0.315 1.745-0.352 2.688-0.029 0.947 0.124 1.834 0.458 2.663v0c0.317 0.786 0.827 1.393 1.532 1.821 0.701 0.437 1.469 0.487 2.304 0.151v0c0.65-0.262 1.093-0.742 1.329-1.442 0.234-0.705 0.367-1.471 0.402-2.297 0.034-0.826 0.059-1.559 0.074-2.199v0c0.047-1.098 0.125-2.19 0.234-3.276 0.115-1.089 0.425-2.077 0.931-2.965 0.506-0.887 1.365-1.575 2.577-2.063v0c1.219-0.491 2.357-0.496 3.414-0.016 1.054 0.474 1.987 1.228 2.798 2.26 0.809 1.026 1.45 2.127 1.924 3.303v0c0.297 0.736 0.561 1.525 0.792 2.367 0.24 0.846 0.371 1.591 0.394 2.237 0.029 0.643-0.13 1.034-0.477 1.173v0c-0.08 0.032-0.219 0.045-0.416 0.039v0l-2.825-0.265c0.085-0.379 0.169-0.92 0.253-1.623 0.084-0.703 0.108-1.464 0.072-2.284-0.035-0.82-0.207-1.611-0.513-2.371v0c-0.332-0.823-0.791-1.418-1.378-1.786-0.596-0.371-1.243-0.416-1.942-0.135v0c-0.724 0.292-1.224 0.799-1.501 1.522-0.273 0.714-0.427 1.556-0.46 2.526-0.03 0.961-0.034 1.97-0.012 3.026 0.022 1.055-0.025 2.081-0.141 3.077-0.114 1.002-0.391 1.894-0.831 2.676-0.447 0.784-1.162 1.374-2.146 1.771v0c-1.046 0.421-2.017 0.554-2.914 0.397-0.897-0.156-1.713-0.511-2.446-1.064-0.733-0.553-1.376-1.229-1.929-2.028-0.546-0.801-0.991-1.629-1.334-2.483v0c-0.297-0.736-0.532-1.544-0.707-2.424-0.171-0.888-0.274-1.742-0.309-2.561-0.042-0.818-0.014-1.508 0.082-2.072 0.096-0.564 0.268-0.896 0.516-0.996v0c0.155-0.062 0.318-0.085 0.491-0.068z" fill="#6b7280" data-fill-palette-color="primary"></path><path d="M14.3 143.119c0-1.867 1.514-3.381 3.38-3.38 1.867 0 3.381 1.514 3.381 3.38 0 1.867-1.514 3.381-3.381 3.381-1.867 0-3.381-1.514-3.38-3.381z" fill="#6b7280" data-fill-palette-color="primary"></path><path d="M266.472 143.119c0-1.867 1.514-3.381 3.38-3.38 1.867 0 3.381 1.514 3.381 3.38 0 1.867-1.514 3.381-3.381 3.381-1.867 0-3.381-1.514-3.38-3.381z" fill="#6b7280" data-fill-palette-color="primary"></path></g><g id="text-1"><path d="M41.319 179.368l-23.527 8.591 1.256 3.441c0.62 1.698 1.358 3.36 2.215 4.986 0.865 1.63 1.856 3.168 2.973 4.613v0c-0.005-0.013-0.21 0.134-0.617 0.439-0.407 0.305-0.871 0.552-1.391 0.742v0c-0.746 0.272-1.371 0.202-1.877-0.209-0.497-0.408-1.004-1.224-1.522-2.448-0.52-1.23-1.175-2.927-1.965-5.089v0c-0.421-1.153-0.825-2.298-1.212-3.435-0.387-1.137-0.725-2.15-1.013-3.039-0.289-0.889-0.494-1.556-0.614-2.002v0c-0.15-0.606-0.143-1.052 0.022-1.34 0.169-0.296 0.526-0.544 1.071-0.742v0l23.189-8.468-1.339-3.666 1.495-0.545c0.351 0.319 0.815 0.977 1.392 1.973 0.575 0.99 1.089 2.106 1.541 3.347v0c0.357 0.978 0.558 1.654 0.602 2.028 0.042 0.368-0.184 0.643-0.679 0.823z" fill="#6b7280" data-fill-palette-color="primary"></path><path d="M51.408 201.745v0c0.645-0.416 1.34-0.531 2.087-0.346 0.747 0.185 1.332 0.606 1.754 1.261v0c0.434 0.673 0.578 1.382 0.432 2.127-0.143 0.751-0.536 1.334-1.181 1.751v0c-0.622 0.402-1.305 0.513-2.047 0.333-0.739-0.174-1.326-0.597-1.761-1.27v0c-0.423-0.656-0.565-1.362-0.426-2.118 0.139-0.757 0.52-1.336 1.142-1.738zM47.711 210.3l-15.101 9.745 1.904 2.951-1.269 0.819c-0.465-0.24-1.05-0.76-1.756-1.558-0.706-0.799-1.321-1.605-1.846-2.417v0c-0.445-0.689-0.721-1.333-0.829-1.931-0.108-0.597 0.186-1.12 0.881-1.569v0l14.403-9.294-1.932-2.993 1.278-0.825c0.352 0.225 0.783 0.622 1.293 1.191 0.51 0.568 1.031 1.204 1.565 1.908 0.53 0.698 0.985 1.341 1.364 1.93v0c0.3 0.465 0.495 0.847 0.585 1.147 0.094 0.305-0.087 0.604-0.54 0.896z" fill="#6b7280" data-fill-palette-color="primary"></path><path d="M45.596 236.335l11.73-12.444-2.592-2.444 1.044-1.107c0.396 0.135 0.909 0.417 1.539 0.847 0.631 0.43 1.29 0.922 1.976 1.478 0.682 0.551 1.277 1.067 1.788 1.547v0c0.403 0.38 0.684 0.704 0.842 0.973 0.164 0.274 0.06 0.607-0.31 1v0l-0.679 0.721c0.258 0.115 0.833 0.327 1.724 0.636 0.896 0.313 1.905 0.755 3.027 1.326 1.121 0.562 2.147 1.282 3.079 2.16v0c1.141 1.075 1.808 2.089 2.001 3.042 0.193 0.952 0.065 1.876-0.385 2.772-0.46 0.896-1.115 1.796-1.966 2.698v0l-8.834 9.372 2.563 2.416-1.037 1.099c-0.513-0.126-1.209-0.493-2.085-1.099-0.872-0.602-1.662-1.237-2.371-1.905v0c-0.597-0.563-1.017-1.119-1.26-1.669-0.243-0.55-0.08-1.126 0.487-1.727v0l8.862-9.401c0.933-0.99 1.475-1.827 1.624-2.511 0.145-0.689-0.205-1.431-1.049-2.227v0c-0.398-0.375-0.9-0.766-1.507-1.173-0.607-0.416-1.213-0.809-1.819-1.178-0.606-0.369-1.122-0.672-1.549-0.91-0.436-0.237-0.688-0.369-0.755-0.396v0l-7.584 8.046c-1.135 1.204-1.965 2.191-2.49 2.962-0.52 0.766-0.881 1.314-1.084 1.646v0c-0.399-0.101-0.844-0.305-1.334-0.612-0.49-0.306-0.893-0.608-1.209-0.906v0c-0.5-0.471-0.816-0.958-0.95-1.458-0.138-0.506 0.05-1.03 0.563-1.574z" fill="#6b7280" data-fill-palette-color="primary"></path><path d="M78.521 252.066v0c0.993-1.897 2.276-3.364 3.85-4.4 1.571-1.045 3.329-1.586 5.276-1.621 1.943-0.045 3.973 0.487 6.089 1.594v0c1.59 0.832 2.784 1.875 3.581 3.127 0.794 1.259 1.219 2.577 1.274 3.954 0.052 1.383-0.244 2.688-0.887 3.918v0c-0.294 0.562-0.659 1.086-1.094 1.573-0.442 0.484-0.958 0.809-1.549 0.974-0.597 0.162-1.294 0.034-2.092-0.384v0l-10.719-5.609c-0.88 2.272-0.892 4.359-0.035 6.261 0.863 1.905 2.344 3.406 4.442 4.504v0c1.472 0.77 3.137 1.314 4.996 1.632v0l-0.046 1.512c-1.307 0.152-2.661 0.049-4.063-0.307-1.399-0.348-2.695-0.835-3.889-1.46v0c-1.312-0.687-2.475-1.559-3.488-2.615-1.013-1.057-1.792-2.252-2.337-3.584-0.545-1.332-0.781-2.766-0.708-4.301 0.07-1.529 0.537-3.119 1.399-4.768zM83.37 252.966l9.282 4.858c0.195-0.199 0.367-0.414 0.518-0.644 0.147-0.224 0.291-0.469 0.43-0.735v0c0.411-0.786 0.645-1.65 0.701-2.592 0.065-0.945-0.102-1.841-0.501-2.691-0.402-0.843-1.088-1.518-2.057-2.025v0c-1.218-0.637-2.339-0.84-3.363-0.608-1.031 0.229-1.958 0.749-2.782 1.56-0.833 0.814-1.575 1.773-2.228 2.877z" fill="#6b7280" data-fill-palette-color="primary"></path><path d="M110.194 274.491l3.262-16.787-3.497-0.68 0.29-1.493c0.406-0.098 0.991-0.134 1.754-0.107 0.763 0.026 1.583 0.09 2.46 0.192 0.871 0.101 1.65 0.219 2.337 0.352v0c0.544 0.106 0.954 0.23 1.233 0.372 0.285 0.144 0.376 0.481 0.272 1.012v0l-0.189 0.972c0.28-0.041 0.879-0.169 1.798-0.385 0.925-0.214 2.014-0.38 3.267-0.496 1.247-0.125 2.5-0.065 3.757 0.179v0c1.539 0.299 2.645 0.799 3.317 1.501 0.672 0.702 1.058 1.551 1.156 2.549 0.091 1.003 0.017 2.114-0.219 3.332v0l-2.457 12.642 3.458 0.672-0.289 1.483c-0.501 0.168-1.285 0.229-2.35 0.185-1.059-0.043-2.066-0.157-3.022-0.342v0c-0.805-0.157-1.458-0.402-1.956-0.737-0.499-0.335-0.67-0.908-0.512-1.721v0l2.464-12.681c0.26-1.336 0.27-2.333 0.031-2.991-0.246-0.659-0.938-1.1-2.078-1.321v0c-0.537-0.104-1.171-0.166-1.901-0.186-0.735-0.027-1.458-0.035-2.166-0.023-0.709 0.012-1.308 0.031-1.796 0.058-0.496 0.033-0.779 0.056-0.849 0.07v0l-2.109 10.854c-0.316 1.624-0.489 2.902-0.521 3.834-0.03 0.925-0.042 1.582-0.036 1.97v0c-0.392 0.128-0.877 0.193-1.455 0.197-0.578 0.003-1.08-0.037-1.506-0.12v0c-0.675-0.131-1.202-0.373-1.582-0.725-0.387-0.354-0.509-0.897-0.366-1.631z" fill="#6b7280" data-fill-palette-color="primary"></path><path d="M163.72 250.004l11.27 20.947 0.257-0.04c0.494-2.869 0.883-5.277 1.167-7.222 0.29-1.947 0.51-3.539 0.658-4.777 0.143-1.23 0.241-2.203 0.294-2.92 0.045-0.722 0.056-1.274 0.032-1.654-0.025-0.388-0.057-0.707-0.095-0.958v0c-0.181-1.187-0.467-2.243-0.858-3.169-0.398-0.931-0.736-1.683-1.012-2.255v0l3.026-1.868c0.171-0.12 0.33-0.205 0.477-0.255 0.141-0.048 0.284-0.084 0.429-0.105v0c0.495-0.075 0.908 0.094 1.242 0.509 0.341 0.42 0.57 1.016 0.687 1.788v0c0.167 1.095 0.169 2.616 0.008 4.564-0.162 1.948-0.458 4.166-0.889 6.654-0.43 2.495-0.973 5.128-1.631 7.901-0.651 2.771-1.393 5.537-2.228 8.295v0l-2.424 0.37c-0.627 0.095-1.134 0.062-1.523-0.102-0.397-0.169-0.757-0.563-1.081-1.182v0l-7.723-14.28c-0.078 1.085-0.235 2.374-0.473 3.868-0.232 1.486-0.524 3.049-0.875 4.689-0.35 1.646-0.735 3.26-1.155 4.842-0.42 1.582-0.846 3.02-1.276 4.314v0l-2.543 0.387c-0.64 0.097-1.148 0.064-1.523-0.101-0.384-0.171-0.751-0.564-1.101-1.179v0l-12.145-21.977-3.283 2.1-0.873-1.345c0.373-0.475 0.893-1.071 1.56-1.786 0.674-0.717 1.38-1.371 2.12-1.963 0.741-0.585 1.418-0.925 2.031-1.018v0c0.415-0.063 0.84-0.02 1.275 0.129 0.441 0.149 0.786 0.464 1.035 0.946v0l11.803 21.331 0.238-0.037c0.415-1.575 0.764-3.224 1.047-4.947 0.285-1.717 0.518-3.399 0.699-5.046 0.188-1.642 0.334-3.165 0.437-4.571 0.11-1.407 0.193-2.587 0.25-3.54v0l-0.236-0.491c-0.778-1.521-1.427-2.634-1.946-3.337-0.525-0.703-0.902-1.178-1.129-1.427v0c0.389-0.457 0.872-0.808 1.45-1.051 0.577-0.243 1.093-0.399 1.548-0.469v0c0.706-0.108 1.283-0.081 1.733 0.08 0.443 0.162 0.86 0.615 1.249 1.358z" fill="#6b7280" data-fill-palette-color="primary"></path><path d="M211.472 260.566l-0.094-0.176c-0.006-0.012-0.122 0.182-0.348 0.582-0.223 0.391-0.547 0.881-0.974 1.471-0.423 0.596-0.929 1.186-1.516 1.771-0.591 0.594-1.254 1.087-1.99 1.479v0c-1.036 0.552-2.093 0.873-3.172 0.964-1.084 0.094-2.104-0.112-3.06-0.615-0.956-0.504-1.762-1.371-2.417-2.602v0c-0.728-1.366-0.912-2.67-0.552-3.912 0.35-1.245 1.127-2.418 2.331-3.52 1.195-1.105 2.691-2.136 4.486-3.092v0l2.518-1.341-0.715-1.342c-0.492-0.924-1.009-1.753-1.55-2.485-0.544-0.738-1.145-1.242-1.803-1.512-0.658-0.27-1.407-0.18-2.249 0.269v0c-0.801 0.426-1.509 1.042-2.124 1.845-0.615 0.804-1.154 1.665-1.617 2.584-0.457 0.916-0.857 1.768-1.201 2.556v0l-2.51-1.18c-0.29-0.118-0.495-0.292-0.618-0.522v0c-0.207-0.389-0.152-0.875 0.164-1.459 0.319-0.578 0.795-1.19 1.425-1.836 0.634-0.64 1.345-1.249 2.134-1.827 0.779-0.581 1.53-1.064 2.254-1.451v0c1.466-0.781 2.934-1.26 4.404-1.438 1.47-0.178 2.847 0.06 4.132 0.713 1.291 0.65 2.391 1.829 3.301 3.537v0l5.296 9.945 3.1-1.651 0.711 1.333c-0.278 0.443-0.845 0.983-1.7 1.62-0.855 0.637-1.715 1.186-2.581 1.647v0c-0.583 0.31-1.197 0.513-1.842 0.606-0.645 0.094-1.186-0.226-1.623-0.961zM206.398 262.385v0c0.412-0.22 0.856-0.528 1.332-0.926 0.479-0.391 0.93-0.794 1.352-1.207 0.422-0.414 0.767-0.76 1.035-1.038 0.27-0.287 0.405-0.431 0.405-0.432v0l-2.667-5.008-2.994 1.595c-0.601 0.32-1.224 0.754-1.869 1.301-0.645 0.548-1.111 1.192-1.397 1.934-0.285 0.741-0.188 1.563 0.292 2.464v0c0.452 0.848 1.078 1.406 1.879 1.675 0.801 0.269 1.678 0.149 2.632-0.358z" fill="#6b7280" data-fill-palette-color="primary"></path><path d="M216.129 222.405l18.36 21.085 2.656-2.313 0.992 1.139c-0.176 0.498-0.609 1.154-1.299 1.968-0.685 0.809-1.394 1.533-2.129 2.172v0c-0.619 0.539-1.214 0.902-1.784 1.089-0.571 0.188-1.128-0.031-1.671-0.654v0l-17.802-20.444-2.694 2.346-1.012-1.162c0.168-0.376 0.499-0.859 0.994-1.45 0.5-0.594 1.055-1.201 1.665-1.821 0.606-0.625 1.173-1.167 1.701-1.627v0c0.418-0.364 0.773-0.611 1.066-0.742 0.283-0.132 0.602 0.006 0.957 0.414z" fill="#6b7280" data-fill-palette-color="primary"></path><path d="M255.186 219.932l-0.161-0.119c-0.011-0.008-0.032 0.217-0.063 0.675-0.032 0.449-0.114 1.031-0.244 1.748-0.125 0.72-0.326 1.471-0.604 2.252-0.276 0.791-0.662 1.522-1.157 2.193v0c-0.697 0.945-1.512 1.691-2.445 2.238-0.937 0.552-1.946 0.807-3.026 0.765-1.08-0.042-2.181-0.476-3.303-1.304v0c-1.246-0.918-1.975-2.015-2.186-3.29-0.221-1.274-0.027-2.668 0.584-4.182 0.601-1.513 1.506-3.088 2.713-4.725v0l1.693-2.296-1.225-0.902c-0.843-0.622-1.667-1.146-2.47-1.573-0.809-0.431-1.569-0.626-2.279-0.586-0.71 0.041-1.347 0.445-1.913 1.212v0c-0.538 0.73-0.912 1.591-1.12 2.581-0.208 0.99-0.323 2-0.343 3.029-0.017 1.024-0.011 1.965 0.019 2.824v0l-2.774 0.019c-0.312 0.019-0.573-0.049-0.782-0.204v0c-0.354-0.261-0.515-0.724-0.482-1.387 0.039-0.659 0.203-1.417 0.494-2.272 0.296-0.851 0.674-1.707 1.136-2.569 0.452-0.86 0.921-1.621 1.408-2.281v0c0.986-1.337 2.103-2.403 3.352-3.198 1.249-0.795 2.594-1.175 4.036-1.139 1.445 0.03 2.946 0.618 4.503 1.766v0l9.069 6.687 2.085-2.828 1.216 0.897c-0.06 0.52-0.338 1.251-0.835 2.195-0.497 0.943-1.036 1.81-1.618 2.599v0c-0.392 0.532-0.859 0.979-1.4 1.342-0.541 0.363-1.168 0.308-1.878-0.167zM251.392 223.762v0c0.277-0.376 0.545-0.846 0.803-1.41 0.264-0.56 0.497-1.118 0.699-1.672 0.202-0.555 0.364-1.016 0.485-1.383 0.12-0.376 0.18-0.564 0.18-0.564v0l-4.567-3.367-2.013 2.73c-0.404 0.548-0.779 1.208-1.125 1.981-0.346 0.773-0.488 1.555-0.425 2.347 0.063 0.792 0.505 1.491 1.326 2.096v0c0.773 0.57 1.579 0.804 2.418 0.701 0.838-0.103 1.578-0.589 2.219-1.459z" fill="#6b7280" data-fill-palette-color="primary"></path><path d="M265.394 200.259l-1.458-2.351c0.512-0.316 1.151-0.721 1.916-1.214 0.771-0.491 1.518-1.079 2.239-1.764 0.717-0.693 1.255-1.475 1.612-2.345v0c0.34-0.827 0.405-1.662 0.196-2.505-0.215-0.846-0.761-1.448-1.638-1.808v0c-0.685-0.281-1.375-0.244-2.069 0.113-0.688 0.359-1.35 0.838-1.985 1.435-0.631 0.606-1.19 1.141-1.676 1.605v0c-0.839 0.795-1.698 1.563-2.58 2.305-0.885 0.733-1.843 1.248-2.874 1.546-1.037 0.295-2.191 0.182-3.462-0.34v0c-1.284-0.527-2.147-1.358-2.59-2.491-0.449-1.136-0.599-2.388-0.449-3.755 0.144-1.369 0.47-2.673 0.98-3.913v0c0.317-0.771 0.695-1.561 1.134-2.369 0.448-0.811 0.899-1.47 1.353-1.976 0.453-0.506 0.862-0.685 1.225-0.535v0c0.086 0.035 0.2 0.129 0.34 0.28v0l1.932 2.276c-0.337 0.222-0.796 0.568-1.377 1.035-0.575 0.47-1.155 1.029-1.738 1.677-0.575 0.644-1.025 1.364-1.352 2.16v0c-0.355 0.864-0.447 1.652-0.278 2.363 0.176 0.714 0.631 1.222 1.365 1.523v0c0.759 0.312 1.507 0.298 2.245-0.04 0.738-0.339 1.475-0.862 2.213-1.569 0.729-0.703 1.473-1.461 2.232-2.275 0.757-0.807 1.544-1.547 2.361-2.221 0.821-0.665 1.687-1.132 2.598-1.4 0.911-0.268 1.884-0.189 2.921 0.237v0c1.098 0.451 1.928 1.066 2.488 1.844 0.56 0.778 0.915 1.645 1.063 2.6 0.149 0.955 0.135 1.938-0.041 2.946-0.168 1.006-0.437 1.959-0.807 2.86v0c-0.317 0.771-0.738 1.55-1.263 2.338-0.521 0.796-1.066 1.517-1.634 2.163-0.575 0.644-1.104 1.144-1.59 1.5-0.491 0.354-0.867 0.477-1.125 0.37v0c-0.16-0.066-0.303-0.168-0.427-0.305z" fill="#6b7280" data-fill-palette-color="primary"></path></g></svg></g></svg></g></svg></g></svg></g><defs></defs></svg><rect width="280" height="280" fill="none" stroke="none" visibility="hidden"></rect></g></svg></g></svg>